<?xml version="1.0" encoding="utf-8"?>
<!-- Generator: Adobe Illustrator 16.0.0, SVG Export Plug-In . SVG Version: 6.00 Build 0)  -->
<!DOCTYPE svg PUBLIC "-//W3C//DTD SVG 1.1//EN" "http://www.w3.org/Graphics/SVG/1.1/DTD/svg11.dtd">
<svg version="1.1" id="Layer_1" xmlns="http://www.w3.org/2000/svg" xmlns:xlink="http://www.w3.org/1999/xlink" x="0px" y="0px"
	 width="40px" height="40px" viewBox="0 0 40 40" enable-background="new 0 0 40 40" xml:space="preserve">
<path fill="#4A4A4A" d="M31.806,5.34L19.874,17.325L7.707,5.208c-0.812-0.808-2.191-0.737-3.083,0.16
	C3.731,6.264,3.665,7.645,4.477,8.453l12.168,12.116L4.469,32.798c-0.81,0.813-0.738,2.192,0.158,3.085
	c0.895,0.89,2.276,0.958,3.084,0.145l12.177-12.229l12.047,11.993c0.811,0.81,2.188,0.739,3.082-0.158
	c0.894-0.898,0.958-2.276,0.146-3.086L23.118,20.554L35.049,8.57c0.81-0.812,0.738-2.191-0.157-3.084
	C33.997,4.596,32.615,4.529,31.806,5.34z"/>
</svg>
